<?xml version="1.0" encoding="UTF-8" standalone="no"?>
<svg width="40px" height="60px" viewBox="0 0 40 60" version="1.1" xmlns="http://www.w3.org/2000/svg" xmlns:xlink="http://www.w3.org/1999/xlink">
    <!-- Generator: Sketch 3.8.3 (29802) - http://www.bohemiancoding.com/sketch -->
    <title>rabbit</title>
    <desc>Created with Sketch.</desc>
    <defs></defs>
    <g id="Page-1" stroke="none" stroke-width="1" fill="none" fill-rule="evenodd">
        <g id="rabbit">
            <path d="M34.5944062,26.7588931 L34.5944062,6.2194795 C34.5944062,3.24366031 32.1399075,0.809610656 29.1401594,0.809610656 C26.1404113,0.809610656 23.6859126,3.24366031 23.6859126,6.2194795 L23.6859126,20.6915961 C22.5130129,20.4741926 21.3041722,20.3550555 20.0672802,20.3550555 C18.8303882,20.3550555 17.6215476,20.4741926 16.4477712,20.6915961 L16.4477712,6.2194795 C16.4477712,3.24366031 13.9941491,0.809610656 10.994401,0.809610656 C7.99465296,0.809610656 5.54015424,3.24366031 5.54015424,6.2194795 L5.54015424,26.7588931 C2.40277892,30.2034343 0.49177635,34.7671687 0.49177635,39.7744062 C0.49177635,50.499356 9.25608997,59.193757 20.0672802,59.193757 C30.8784704,59.193757 39.6427841,50.499356 39.6427841,39.7744062 C39.6427841,34.7671687 37.7317815,30.2034343 34.5944062,26.7588931" id="Fill-44" fill="#F9D9F2"></path>
            <path d="M14.0379794,35.5532998 C14.0379794,36.8455462 12.9816684,37.8925615 11.6790308,37.8925615 C10.3772699,37.8925615 9.32095887,36.8455462 9.32095887,35.5532998 C9.32095887,34.2610533 10.3772699,33.2131684 11.6790308,33.2131684 C12.9816684,33.2131684 14.0379794,34.2610533 14.0379794,35.5532998" id="Fill-45" fill="#4A4A4A"></path>
            <path d="M30.8136015,35.5532998 C30.8136015,36.8455462 29.7572905,37.8925615 28.454653,37.8925615 C27.1520154,37.8925615 26.0957044,36.8455462 26.0957044,35.5532998 C26.0957044,34.2610533 27.1520154,33.2131684 28.454653,33.2131684 C29.7572905,33.2131684 30.8136015,34.2610533 30.8136015,35.5532998" id="Fill-46" fill="#4A4A4A"></path>
            <path d="M23.8638638,48.8662209 L20.8088895,47.2348249 L20.8088895,45.5477737 L22.4910977,42.6580463 C22.6243419,42.4302075 22.6243419,42.1493221 22.4910977,41.9214833 C22.3587301,41.6936444 22.1141568,41.5536365 21.848545,41.5536365 L18.2851388,41.5536365 C18.0204036,41.5536365 17.7758303,41.6936444 17.6425861,41.9214833 C17.5102185,42.1493221 17.5102185,42.4302075 17.6425861,42.6580463 L19.3247943,45.5477737 L19.3247943,47.2348249 L16.2698201,48.8662209 C15.9086581,49.0584056 15.7736607,49.5053872 15.9673907,49.8627985 C16.1015116,50.1097689 16.3574807,50.2497768 16.6222159,50.2497768 C16.7405578,50.2497768 16.8615296,50.2219491 16.9728586,50.1619458 L20.0672802,48.5096791 L23.1617018,50.1619458 C23.2730308,50.2219491 23.393126,50.2497768 23.5123445,50.2497768 C23.7762031,50.2497768 24.0321722,50.1097689 24.1662931,49.8627985 C24.3608997,49.5053872 24.2250257,49.0584056 23.8638638,48.8662209" id="Fill-47" fill="#7A1F09"></path>
        </g>
    </g>
</svg>