<?xml version="1.0" encoding="UTF-8" standalone="no"?>
<svg width="54px" height="52px" viewBox="0 0 54 52" version="1.1" xmlns="http://www.w3.org/2000/svg" xmlns:xlink="http://www.w3.org/1999/xlink">
    <!-- Generator: Sketch 3.8.3 (29802) - http://www.bohemiancoding.com/sketch -->
    <title>bear</title>
    <desc>Created with Sketch.</desc>
    <defs></defs>
    <g id="Page-1" stroke="none" stroke-width="1" fill="none" fill-rule="evenodd">
        <g id="Sketch-icons-" transform="translate(-147.000000, -227.000000)" fill="#FFFFFF">
            <g id="stroke-icons" transform="translate(50.500000, 66.509430)">
                <path d="M113.374172,186.01678 C115.084432,186.01678 116.47473,184.636703 116.47473,182.940955 C116.47473,181.245208 115.084432,179.86513 113.374172,179.86513 C111.664789,179.86513 110.273614,181.245208 110.273614,182.940955 C110.273614,184.636703 111.664789,186.01678 113.374172,186.01678 L113.374172,186.01678 Z M113.374172,181.337387 C114.265681,181.337387 114.991512,182.057427 114.991512,182.940955 C114.991512,183.825353 114.265681,184.544523 113.374172,184.544523 C112.482663,184.544523 111.75771,183.825353 111.75771,182.940955 C111.75771,182.057427 112.482663,181.337387 113.374172,181.337387 L113.374172,181.337387 Z M130.424172,194.167672 C130.424172,195.928641 128.980401,197.360025 127.206149,197.360025 C125.431021,197.360025 123.987249,195.928641 123.987249,194.167672 L123.987249,193.019782 C125.3381,192.688459 126.346198,191.484043 126.346198,190.043093 C126.346198,188.347346 124.955023,186.967268 123.24564,186.967268 C121.53538,186.967268 120.145082,188.347346 120.145082,190.043093 C120.145082,191.484043 121.15318,192.688459 122.504031,193.019782 L122.504031,194.167672 C122.504031,195.928641 121.06026,197.360025 119.286008,197.360025 C117.510879,197.360025 116.067108,195.928641 116.067108,194.167672 C116.067108,193.761562 115.734874,193.431979 115.325499,193.431979 C114.916123,193.431979 114.583889,193.761562 114.583889,194.167672 C114.583889,196.739991 116.693005,198.833151 119.286008,198.833151 C120.952437,198.833151 122.410234,197.961798 123.24564,196.660856 C124.081046,197.961798 125.538843,198.833151 127.206149,198.833151 C129.798275,198.833151 131.907391,196.739991 131.907391,194.167672 C131.907391,193.761562 131.576033,193.431979 131.165781,193.431979 C130.756406,193.431979 130.424172,193.761562 130.424172,194.167672 L130.424172,194.167672 Z M121.628301,190.043093 C121.628301,189.159565 122.354131,188.439525 123.24564,188.439525 C124.137149,188.439525 124.862103,189.159565 124.862103,190.043093 C124.862103,190.92749 124.137149,191.646661 123.24564,191.646661 C122.354131,191.646661 121.628301,190.92749 121.628301,190.043093 L121.628301,190.043093 Z M123.24564,183.723608 C116.209118,183.723608 110.484877,189.402187 110.484877,196.382579 C110.484877,203.363841 116.209118,209.04242 123.24564,209.04242 C130.282162,209.04242 136.006404,203.363841 136.006404,196.382579 C136.006404,189.402187 130.282162,183.723608 123.24564,183.723608 L123.24564,183.723608 Z M123.24564,207.569294 C117.026992,207.569294 111.968095,202.551621 111.968095,196.382579 C111.968095,190.213537 117.026992,185.195864 123.24564,185.195864 C129.464288,185.195864 134.523185,190.213537 134.523185,196.382579 C134.523185,202.551621 129.464288,207.569294 123.24564,207.569294 L123.24564,207.569294 Z M123.24564,210.246836 C110.739093,210.246836 100.564319,200.153226 100.564319,187.746442 C100.564319,175.338789 110.739093,165.246049 123.24564,165.246049 C135.752188,165.246049 145.927838,175.338789 145.927838,187.746442 C145.927838,200.153226 135.752188,210.246836 123.24564,210.246836 L123.24564,210.246836 Z M98.1624165,170.105452 C98.1624165,166.040876 101.497028,162.733734 105.595165,162.733734 C108.272321,162.733734 110.733833,164.174685 112.04699,166.458291 C107.738468,168.699286 104.169802,172.222093 101.887118,176.488419 C99.6035578,175.18052 98.1624165,172.74647 98.1624165,170.105452 L98.1624165,170.105452 Z M140.896116,162.733734 C144.994252,162.733734 148.328864,166.040876 148.328864,170.105452 C148.328864,172.74647 146.887722,175.18052 144.604162,176.488419 C142.321478,172.222093 138.753689,168.699286 134.44429,166.458291 C135.758324,164.174685 138.219835,162.733734 140.896116,162.733734 L140.896116,162.733734 Z M149.812082,170.105452 C149.812082,165.228657 145.813003,161.261478 140.896116,161.261478 C137.636015,161.261478 134.660812,163.056361 133.104835,165.866953 C130.091062,164.526009 126.75645,163.772923 123.24564,163.772923 C119.73483,163.772923 116.400219,164.526009 113.387321,165.866953 C111.830468,163.056361 108.856141,161.261478 105.595165,161.261478 C100.678278,161.261478 96.6791979,165.228657 96.6791979,170.105452 C96.6791979,173.314328 98.4657224,176.251014 101.265604,177.804145 C99.8665398,180.83562 99.0802237,184.200156 99.0802237,187.746442 C99.0802237,200.964575 109.920342,211.719092 123.24564,211.719092 C136.570938,211.719092 147.411057,200.964575 147.411057,187.746442 C147.411057,184.200156 146.62474,180.83562 145.226553,177.804145 C148.026434,176.251014 149.812082,173.314328 149.812082,170.105452 L149.812082,170.105452 Z M133.117108,184.544523 C132.225599,184.544523 131.500645,183.825353 131.500645,182.940955 C131.500645,182.057427 132.225599,181.337387 133.117108,181.337387 C134.008617,181.337387 134.734447,182.057427 134.734447,182.940955 C134.734447,183.825353 134.008617,184.544523 133.117108,184.544523 L133.117108,184.544523 Z M133.117108,179.86513 C131.407725,179.86513 130.01655,181.245208 130.01655,182.940955 C130.01655,184.636703 131.407725,186.01678 133.117108,186.01678 C134.827368,186.01678 136.217666,184.636703 136.217666,182.940955 C136.217666,181.245208 134.827368,179.86513 133.117108,179.86513 L133.117108,179.86513 Z" id="bear"></path>
            </g>
        </g>
    </g>
</svg>