<?xml version="1.0" encoding="UTF-8" standalone="no"?>
<svg width="42px" height="62px" viewBox="0 0 42 62" version="1.1" xmlns="http://www.w3.org/2000/svg" xmlns:xlink="http://www.w3.org/1999/xlink">
    <!-- Generator: Sketch 3.8.3 (29802) - http://www.bohemiancoding.com/sketch -->
    <title>rabbit</title>
    <desc>Created with Sketch.</desc>
    <defs></defs>
    <g id="Page-1" stroke="none" stroke-width="1" fill="none" fill-rule="evenodd">
        <g id="Sketch-icons-" transform="translate(-240.000000, -300.000000)" fill="#FFFFFF">
            <g id="stroke-icons" transform="translate(50.500000, 66.509430)">
                <path d="M202.354134,267.207115 C200.644751,267.207115 199.253576,268.587193 199.253576,270.28381 C199.253576,271.980427 200.644751,273.360504 202.354134,273.360504 C204.063517,273.360504 205.454692,271.980427 205.454692,270.28381 C205.454692,268.587193 204.063517,267.207115 202.354134,267.207115 L202.354134,267.207115 Z M202.354134,271.887378 C201.462625,271.887378 200.737671,271.168207 200.737671,270.28381 C200.737671,269.399412 201.462625,268.680242 202.354134,268.680242 C203.245643,268.680242 203.970596,269.399412 203.970596,270.28381 C203.970596,271.168207 203.245643,271.887378 202.354134,271.887378 L202.354134,271.887378 Z M225.997969,261.215475 C226.002352,261.184169 226.010242,261.153732 226.010242,261.121556 L226.010242,240.214296 C226.010242,236.82541 223.231398,234.067864 219.814386,234.067864 C216.398249,234.067864 213.619406,236.82541 213.619406,240.214296 L213.619406,254.555101 C212.678807,254.42205 211.718923,254.349002 210.741506,254.349002 C209.764967,254.349002 208.805082,254.42205 207.864483,254.555101 L207.864483,240.214296 C207.864483,236.82541 205.084763,234.067864 201.668627,234.067864 C198.251614,234.067864 195.472771,236.82541 195.472771,240.214296 L195.472771,261.121556 C195.472771,261.153732 195.480661,261.184169 195.485044,261.215475 C192.338026,264.766109 190.424393,269.416805 190.424393,274.504916 C190.424393,285.618584 199.538473,294.6617 210.741506,294.6617 C221.945416,294.6617 231.059496,285.618584 231.059496,274.504916 C231.059496,269.416805 229.144987,264.766109 225.997969,261.215475 L225.997969,261.215475 Z M215.102625,254.820333 L215.102625,240.214296 C215.102625,237.63676 217.216123,235.540121 219.814386,235.540121 C222.412648,235.540121 224.527023,237.63676 224.527023,240.214296 L224.527023,259.699738 C224.029987,259.24406 223.50753,258.824036 222.972799,258.423144 C222.926339,258.38749 222.879879,258.352705 222.833419,258.317921 C222.594982,258.142259 222.353915,257.970945 222.108465,257.806588 C222.084797,257.790935 222.061129,257.776151 222.038337,257.761368 C221.556203,257.439611 221.06092,257.140463 220.553365,256.863057 C220.499015,256.83262 220.445542,256.800444 220.390316,256.770877 C220.178177,256.656958 219.962532,256.549126 219.74601,256.443033 C219.59874,256.370855 219.450594,256.300416 219.300694,256.231717 C219.11573,256.146495 218.931643,256.060403 218.743172,255.980398 C218.410062,255.838651 218.073445,255.702991 217.731568,255.578637 C217.673712,255.557766 217.614103,255.539504 217.556247,255.518633 C217.213494,255.397757 216.867234,255.286446 216.516591,255.182962 C216.43682,255.160352 216.357049,255.137742 216.276401,255.116002 C215.90735,255.011648 215.533039,254.91686 215.155221,254.833377 C215.137689,254.829899 215.120157,254.824681 215.102625,254.820333 L215.102625,254.820333 Z M196.95599,240.214296 C196.95599,237.63676 199.070365,235.540121 201.668627,235.540121 C204.266889,235.540121 206.381265,237.63676 206.381265,240.214296 L206.381265,254.820333 C206.363733,254.824681 206.346201,254.829899 206.328668,254.833377 C205.949974,254.91686 205.575663,255.011648 205.205735,255.116002 C205.125964,255.137742 205.047069,255.160352 204.968175,255.182962 C204.615779,255.286446 204.266889,255.398627 203.922383,255.520373 C203.869787,255.539504 203.816314,255.555157 203.763717,255.574289 C203.416581,255.700383 203.075581,255.837782 202.738087,255.981268 C202.552247,256.060403 202.369913,256.144755 202.186702,256.229108 C202.035049,256.299547 201.884272,256.370855 201.734373,256.444772 C201.519604,256.549996 201.305712,256.656958 201.095326,256.770008 C201.036594,256.802184 200.978738,256.836099 200.920005,256.868274 C200.416833,257.143942 199.925933,257.44135 199.446429,257.759629 C199.422761,257.776151 199.398216,257.790935 199.374548,257.806588 C199.129098,257.971814 198.888907,258.143128 198.649594,258.31879 C198.60401,258.352705 198.55755,258.38749 198.51109,258.422275 C197.97636,258.824036 197.453026,259.24319 196.95599,259.699738 L196.95599,240.214296 L196.95599,240.214296 Z M210.741506,293.188574 C200.356347,293.188574 191.907612,284.808103 191.907612,274.504916 C191.907612,268.718505 194.573373,263.539953 198.749527,260.110195 C198.770566,260.092803 198.791604,260.07715 198.812643,260.060627 C199.237797,259.714521 199.679607,259.388416 200.134566,259.079703 C200.188915,259.042309 200.242388,259.005786 200.297614,258.969262 C200.772735,258.653592 201.261882,258.355314 201.766807,258.083125 C201.76856,258.081386 201.77119,258.080516 201.772943,258.078777 C202.293648,257.798761 202.829254,257.543964 203.377134,257.311777 C203.440249,257.284819 203.505995,257.263079 203.569987,257.236991 C204.007414,257.056981 204.45536,256.896972 204.909442,256.749137 C205.083887,256.693482 205.259208,256.640435 205.436283,256.589128 C205.800075,256.483035 206.170879,256.390856 206.543437,256.305634 C206.73629,256.263023 206.927391,256.213455 207.121997,256.176062 C208.294897,255.948223 209.502861,255.822129 210.741506,255.822129 C211.980152,255.822129 213.188116,255.948223 214.360139,256.176062 C214.555622,256.213455 214.747599,256.263023 214.941329,256.306504 C215.313887,256.390856 215.682938,256.483035 216.047607,256.589128 C216.223805,256.640435 216.399126,256.693482 216.573571,256.749137 C217.02853,256.896972 217.476476,257.05785 217.915656,257.23786 C217.977895,257.263079 218.042763,257.284819 218.105879,257.311777 C218.654635,257.543964 219.191118,257.798761 219.710946,258.079647 C219.711823,258.079647 219.711823,258.080516 219.712699,258.080516 C220.219378,258.354445 220.710278,258.653592 221.188028,258.970131 C221.241501,259.005786 221.294098,259.042309 221.346694,259.077964 C221.803406,259.387546 222.246093,259.714521 222.673,260.062367 C222.692285,260.07802 222.713324,260.092803 222.732609,260.109326 C226.90964,263.539083 229.575401,268.718505 229.575401,274.504916 C229.575401,284.808103 221.126666,293.188574 210.741506,293.188574 L210.741506,293.188574 Z M219.129756,271.887378 C218.238247,271.887378 217.512416,271.168207 217.512416,270.28381 C217.512416,269.399412 218.238247,268.680242 219.129756,268.680242 C220.020388,268.680242 220.746219,269.399412 220.746219,270.28381 C220.746219,271.168207 220.020388,271.887378 219.129756,271.887378 L219.129756,271.887378 Z M219.129756,267.207115 C217.419496,267.207115 216.029198,268.587193 216.029198,270.28381 C216.029198,271.980427 217.419496,273.360504 219.129756,273.360504 C220.839139,273.360504 222.229437,271.980427 222.229437,270.28381 C222.229437,268.587193 220.839139,267.207115 219.129756,267.207115 L219.129756,267.207115 Z M211.238542,277.756403 L210.741506,278.609494 L210.245347,277.756403 L211.238542,277.756403 L211.238542,277.756403 Z M211.483992,281.965335 L211.483992,280.279153 L213.165324,277.387687 C213.298568,277.160718 213.298568,276.879832 213.165324,276.652863 C213.032956,276.425024 212.788383,276.284147 212.522771,276.284147 L208.960242,276.284147 C208.695506,276.284147 208.450933,276.425024 208.317689,276.652863 C208.185321,276.879832 208.185321,277.160718 208.317689,277.387687 L209.999897,280.279153 L209.999897,281.965335 L206.944046,283.596731 C206.583761,283.789785 206.447887,284.235028 206.642494,284.593309 C206.776614,284.841149 207.031707,284.981156 207.296442,284.981156 C207.414784,284.981156 207.535756,284.952459 207.647085,284.892456 L210.741506,283.241059 L213.836805,284.892456 C213.948134,284.952459 214.068229,284.981156 214.186571,284.981156 C214.451306,284.981156 214.707275,284.841149 214.841396,284.593309 C215.035126,284.235028 214.900129,283.789785 214.538967,283.596731 L211.483992,281.965335 Z" id="rabbit"></path>
            </g>
        </g>
    </g>
</svg>