<?xml version="1.0" encoding="UTF-8" standalone="no"?>
<svg width="59px" height="61px" viewBox="0 0 59 61" version="1.1" xmlns="http://www.w3.org/2000/svg" xmlns:xlink="http://www.w3.org/1999/xlink">
    <!-- Generator: Sketch 3.8.3 (29802) - http://www.bohemiancoding.com/sketch -->
    <title>Group 2</title>
    <desc>Created with Sketch.</desc>
    <defs></defs>
    <g id="Page-1" stroke="none" stroke-width="1" fill="none" fill-rule="evenodd">
        <g id="noun_241644_cc" fill="#FFFFFF">
            <g id="Group">
                <g id="Group-2">
                    <path d="M56.925,0.371 L17.957,0.371 C17.012,0.371 16.245,1.137 16.245,2.083 L16.245,18.7 C16.245,19.645 17.011,20.412 17.957,20.412 C18.902,20.412 19.669,19.646 19.669,18.7 L19.669,3.794 L55.213,3.794 L55.213,57.206 L19.669,57.206 L19.669,42.301 C19.669,41.356 18.903,40.589 17.957,40.589 C17.012,40.589 16.245,41.355 16.245,42.301 L16.245,58.918 C16.245,59.863 17.011,60.63 17.957,60.63 L56.925,60.63 C57.87,60.63 58.637,59.864 58.637,58.918 L58.637,2.083 C58.636,1.137 57.87,0.371 56.925,0.371 L56.925,0.371 Z" id="Shape"></path>
                    <path d="M6.739,31.798 L30.997,31.798 C31.942,31.798 32.709,31.032 32.709,30.086 C32.709,29.14 31.943,28.374 30.997,28.374 L6.739,28.374 L12.222,23.724 C12.943,23.113 13.032,22.032 12.42,21.312 C11.808,20.59 10.728,20.503 10.008,21.114 L0.968,28.781 C0.952,28.794 0.941,28.812 0.925,28.826 C0.871,28.875 0.822,28.929 0.774,28.985 C0.745,29.019 0.715,29.052 0.689,29.088 C0.644,29.151 0.606,29.219 0.569,29.287 C0.55,29.322 0.529,29.354 0.513,29.39 C0.477,29.47 0.452,29.555 0.428,29.64 C0.42,29.669 0.408,29.696 0.401,29.726 C0.376,29.842 0.362,29.962 0.362,30.086 C0.362,30.21 0.376,30.33 0.401,30.446 C0.407,30.475 0.42,30.503 0.428,30.532 C0.451,30.618 0.477,30.702 0.513,30.782 C0.529,30.818 0.551,30.851 0.569,30.885 C0.606,30.954 0.643,31.021 0.689,31.084 C0.715,31.12 0.745,31.153 0.774,31.187 C0.821,31.243 0.87,31.297 0.925,31.346 C0.94,31.36 0.952,31.377 0.968,31.391 L10.008,39.058 C10.33,39.331 10.723,39.464 11.114,39.464 C11.599,39.464 12.081,39.259 12.42,38.859 C13.031,38.138 12.943,37.058 12.222,36.447 L6.739,31.798 L6.739,31.798 Z" id="Shape"></path>
                </g>
            </g>
        </g>
    </g>
</svg>